<svg width="85" height="40" viewBox="0 0 85 40" fill="none" xmlns="http://www.w3.org/2000/svg">
<rect x="0.5" y="0.5" width="84" height="39" rx="9.5" fill="white"/>
<rect x="0.5" y="0.5" width="84" height="39" rx="9.5" stroke="#DDE2E4"/>
<g clip-path="url(#clip0_223_4171)">
<path fill-rule="evenodd" clip-rule="evenodd" d="M13 13C13 12.7348 13.1054 12.4804 13.2929 12.2929C13.4804 12.1054 13.7348 12 14 12H26C26.2652 12 26.5196 12.1054 26.7071 12.2929C26.8946 12.4804 27 12.7348 27 13V16C26.9999 16.2652 26.8946 16.5195 26.707 16.707L22 21.414V25C21.9999 25.2652 21.8945 25.5195 21.707 25.707L19.707 27.707C19.5671 27.8468 19.389 27.942 19.195 27.9806C19.0011 28.0192 18.8 27.9993 18.6173 27.9237C18.4346 27.848 18.2785 27.7199 18.1686 27.5555C18.0587 27.391 18 27.1978 18 27V21.414L13.293 16.707C13.1055 16.5195 13.0001 16.2652 13 16V13Z" fill="#F9BD3B"/>
<path d="M41.233 25H42.4659V20.446H46.8807V19.3523H42.4659V15.9119H47.3381V14.8182H41.233V25ZM49.2067 25H50.38V17.3636H49.2067V25ZM49.8033 16.0909C50.2606 16.0909 50.6385 15.733 50.6385 15.2955C50.6385 14.858 50.2606 14.5 49.8033 14.5C49.3459 14.5 48.968 14.858 48.968 15.2955C48.968 15.733 49.3459 16.0909 49.8033 16.0909ZM53.6182 14.8182H52.4449V25H53.6182V14.8182ZM59.0042 17.3636H57.3735V15.5341H56.2002V17.3636H55.0468V18.358H56.2002V23.1307C56.2002 24.4631 57.2741 25.0994 58.2684 25.0994C58.7059 25.0994 58.9843 25.0199 59.1434 24.9602L58.9048 23.9062C58.8054 23.9261 58.6463 23.9659 58.3877 23.9659C57.8707 23.9659 57.3735 23.8068 57.3735 22.8125V18.358H59.0042V17.3636ZM63.8048 25.1591C65.3559 25.1591 66.4895 24.3835 66.8474 23.2301L65.7139 22.9119C65.4156 23.7074 64.7245 24.1051 63.8048 24.1051C62.4277 24.1051 61.4781 23.2152 61.4234 21.5795H66.9667V21.0824C66.9667 18.2386 65.2764 17.2642 63.6855 17.2642C61.6173 17.2642 60.2451 18.8949 60.2451 21.2415C60.2451 23.5881 61.5974 25.1591 63.8048 25.1591ZM61.4234 20.5653C61.503 19.3771 62.3432 18.3182 63.6855 18.3182C64.9582 18.3182 65.7736 19.2727 65.7736 20.5653H61.4234ZM68.6675 25H69.8408V20.1676C69.8408 19.1335 70.6562 18.3778 71.7698 18.3778C72.083 18.3778 72.4062 18.4375 72.4857 18.4574V17.2642C72.3515 17.2543 72.0432 17.2443 71.8692 17.2443C70.9545 17.2443 70.159 17.7614 69.8806 18.517H69.8011V17.3636H68.6675V25Z" fill="#252C32"/>
</g>
<defs>
<clipPath id="clip0_223_4171">
<rect width="65" height="24" fill="white" transform="translate(8 8)"/>
</clipPath>
</defs>
</svg>
