<svg width="95" height="40" viewBox="0 0 95 40" fill="none" xmlns="http://www.w3.org/2000/svg">
<rect x="0.5" y="0.5" width="94" height="39" rx="9.5" fill="white"/>
<rect x="0.5" y="0.5" width="94" height="39" rx="9.5" stroke="#DDE2E4"/>
<g clip-path="url(#clip0_223_4176)">
<path fill-rule="evenodd" clip-rule="evenodd" d="M12.7928 19.707C12.6053 19.5195 12.5 19.2652 12.5 19C12.5 18.7349 12.6053 18.4806 12.7928 18.293L18.7928 12.293C18.9803 12.1056 19.2346 12.0002 19.4998 12.0002C19.765 12.0002 20.0193 12.1056 20.2068 12.293L26.2068 18.293C26.3889 18.4816 26.4897 18.7342 26.4875 18.9964C26.4852 19.2586 26.38 19.5094 26.1946 19.6948C26.0092 19.8803 25.7584 19.9854 25.4962 19.9877C25.234 19.99 24.9814 19.8892 24.7928 19.707L20.4998 15.414V27C20.4998 27.2652 20.3944 27.5196 20.2069 27.7071C20.0194 27.8947 19.765 28 19.4998 28C19.2346 28 18.9802 27.8947 18.7927 27.7071C18.6051 27.5196 18.4998 27.2652 18.4998 27V15.414L14.2068 19.707C14.0193 19.8945 13.765 19.9998 13.4998 19.9998C13.2346 19.9998 12.9803 19.8945 12.7928 19.707Z" fill="#F9BD3B"/>
<path d="M40.733 25H46.9574V23.9062H41.9659V20.446H46.5597V19.3523H41.9659V15.9119H46.8778V14.8182H40.733V25ZM49.7321 17.3636H48.3798L50.8059 21.1818L48.3798 25H49.7321L51.5616 22.0369L53.3911 25H54.7434L52.2775 21.1818L54.7434 17.3636H53.3911L51.5616 20.4858L49.7321 17.3636ZM56.3336 27.8636H57.5069V23.8267H57.6063C57.8648 24.2443 58.362 25.1591 59.8336 25.1591C61.7427 25.1591 63.0751 23.6278 63.0751 21.2017C63.0751 18.7955 61.7427 17.2642 59.8137 17.2642C58.3222 17.2642 57.8648 18.179 57.6063 18.5767H57.4671V17.3636H56.3336V27.8636ZM57.487 21.1818C57.487 19.4716 58.2427 18.3182 59.6745 18.3182C61.166 18.3182 61.9018 19.571 61.9018 21.1818C61.9018 22.8125 61.1461 24.1051 59.6745 24.1051C58.2626 24.1051 57.487 22.9119 57.487 21.1818ZM67.8831 25.1591C69.9513 25.1591 71.3433 23.5881 71.3433 21.2216C71.3433 18.8352 69.9513 17.2642 67.8831 17.2642C65.8149 17.2642 64.4229 18.8352 64.4229 21.2216C64.4229 23.5881 65.8149 25.1591 67.8831 25.1591ZM67.8831 24.1051C66.3121 24.1051 65.5962 22.7528 65.5962 21.2216C65.5962 19.6903 66.3121 18.3182 67.8831 18.3182C69.4541 18.3182 70.1701 19.6903 70.1701 21.2216C70.1701 22.7528 69.4541 24.1051 67.8831 24.1051ZM73.0504 25H74.2237V20.1676C74.2237 19.1335 75.039 18.3778 76.1526 18.3778C76.4658 18.3778 76.789 18.4375 76.8685 18.4574V17.2642C76.7343 17.2543 76.4261 17.2443 76.2521 17.2443C75.3373 17.2443 74.5418 17.7614 74.2634 18.517H74.1839V17.3636H73.0504V25ZM81.9749 17.3636H80.3442V15.5341H79.1709V17.3636H78.0175V18.358H79.1709V23.1307C79.1709 24.4631 80.2448 25.0994 81.2391 25.0994C81.6766 25.0994 81.955 25.0199 82.1141 24.9602L81.8755 23.9062C81.776 23.9261 81.6169 23.9659 81.3584 23.9659C80.8414 23.9659 80.3442 23.8068 80.3442 22.8125V18.358H81.9749V17.3636Z" fill="#252C32"/>
</g>
<defs>
<clipPath id="clip0_223_4176">
<rect width="76" height="24" fill="white" transform="translate(7.5 8)"/>
</clipPath>
</defs>
</svg>
