<svg width="25" height="24" viewBox="0 0 25 24" fill="none" xmlns="http://www.w3.org/2000/svg">
<path fill-rule="evenodd" clip-rule="evenodd" d="M5.79279 11.707C5.60532 11.5195 5.5 11.2652 5.5 11C5.5 10.7349 5.60532 10.4806 5.79279 10.293L11.7928 4.29303C11.9803 4.10556 12.2346 4.00024 12.4998 4.00024C12.765 4.00024 13.0193 4.10556 13.2068 4.29303L19.2068 10.293C19.3889 10.4816 19.4897 10.7342 19.4875 10.9964C19.4852 11.2586 19.38 11.5094 19.1946 11.6948C19.0092 11.8803 18.7584 11.9854 18.4962 11.9877C18.234 11.99 17.9814 11.8892 17.7928 11.707L13.4998 7.41403V19C13.4998 19.2652 13.3944 19.5196 13.2069 19.7071C13.0194 19.8947 12.765 20 12.4998 20C12.2346 20 11.9802 19.8947 11.7927 19.7071C11.6051 19.5196 11.4998 19.2652 11.4998 19V7.41403L7.20679 11.707C7.01926 11.8945 6.76495 11.9998 6.49979 11.9998C6.23462 11.9998 5.98031 11.8945 5.79279 11.707Z" fill="#F9BD3B"/>
</svg>
