<svg width="24" height="24" viewBox="0 0 24 24" fill="none" xmlns="http://www.w3.org/2000/svg">
<g clip-path="url(#clip0_383_1415)">
<path fill-rule="evenodd" clip-rule="evenodd" d="M3.57143 11.5714C3.57143 6.60086 7.60087 2.57143 12.5714 2.57143C17.542 2.57143 21.5714 6.60087 21.5714 11.5714V15C21.5714 15.7101 22.1471 16.2857 22.8571 16.2857C23.5672 16.2857 24.1429 15.7101 24.1429 15V11.5714C24.1429 5.18071 18.9621 0 12.5714 0C6.18071 0 1 5.18071 1 11.5714V22.7143C1 23.4243 1.57563 24 2.28571 24C2.99579 24 3.57143 23.4243 3.57143 22.7143V11.5714ZM8.71429 20.1429C8.71429 19.4328 8.13865 18.8571 7.42857 18.8571C6.7185 18.8571 6.14286 19.4328 6.14286 20.1429V22.7143C6.14286 23.4243 6.7185 24 7.42857 24C8.13865 24 8.71429 23.4243 8.71429 22.7143V20.1429ZM12.5714 8.57143C10.4412 8.57143 8.71429 10.2983 8.71429 12.4286V15C8.71429 15.7101 8.13865 16.2857 7.42857 16.2857C6.7185 16.2857 6.14286 15.7101 6.14286 15V12.4286C6.14286 8.87817 9.02102 6 12.5714 6C16.1218 6 19 8.87817 19 12.4286V22.7143C19 23.4243 18.4243 24 17.7143 24C17.0042 24 16.4286 23.4243 16.4286 22.7143V12.4286C16.4286 10.2983 14.7017 8.57143 12.5714 8.57143ZM24.1429 20.1429C24.1429 19.4328 23.5672 18.8571 22.8571 18.8571C22.1471 18.8571 21.5714 19.4328 21.5714 20.1429V22.7143C21.5714 23.4243 22.1471 24 22.8571 24C23.5672 24 24.1429 23.4243 24.1429 22.7143V20.1429ZM12.5714 19.7143C13.2815 19.7143 13.8571 20.2899 13.8571 21V22.7143C13.8571 23.4243 13.2815 24 12.5714 24C11.8614 24 11.2857 23.4243 11.2857 22.7143V21C11.2857 20.2899 11.8614 19.7143 12.5714 19.7143ZM13.8571 13.2857C13.8571 12.5756 13.2815 12 12.5714 12C11.8614 12 11.2857 12.5756 11.2857 13.2857V15.8571C11.2857 16.5672 11.8614 17.1429 12.5714 17.1429C13.2815 17.1429 13.8571 16.5672 13.8571 15.8571V13.2857Z" fill="#4D4D4D"/>
</g>
<defs>
<clipPath id="clip0_383_1415">
<rect width="24" height="24" fill="white"/>
</clipPath>
</defs>
</svg>
