<svg width="24" height="24" viewBox="0 0 24 24" fill="none" xmlns="http://www.w3.org/2000/svg">
<path d="M17.9981 22.7185C16.577 22.7185 15.4249 21.5663 15.4249 20.1452C15.4249 18.724 16.577 17.572 17.9981 17.572C19.4194 17.572 20.5714 18.724 20.5714 20.1452C20.5714 21.5663 19.4194 22.7185 17.9981 22.7185Z" fill="#4D4D4D"/>
<path d="M5.99817 22.7185C4.57701 22.7185 3.42493 21.5663 3.42493 20.1452C3.42493 18.724 4.57701 17.572 5.99817 17.572C7.41933 17.572 8.57142 18.724 8.57142 20.1452C8.57142 21.5663 7.41933 22.7185 5.99817 22.7185Z" fill="#4D4D4D"/>
<path fill-rule="evenodd" clip-rule="evenodd" d="M12 2.14282C11.2899 2.14282 10.7143 2.71846 10.7143 3.42854V6H8.19724C7.64487 5.97646 7.09939 6.13159 6.64185 6.44271C6.17751 6.75845 5.82931 7.2175 5.65039 7.74974L5.64934 7.75286L4.52422 11.1429H2.57143C1.88943 11.1429 1.23539 11.4138 0.753154 11.896C0.270917 12.3782 0 13.0323 0 13.7143V17.1428C0 17.8248 0.270917 18.4789 0.753154 18.9612C1.03543 19.2433 1.37657 19.4533 1.74771 19.5788C2.02493 17.4787 3.82226 15.8577 5.99815 15.8577C8.22063 15.8577 10.0481 17.5488 10.2643 19.7143H13.732C13.9482 17.5488 15.7757 15.8577 17.9981 15.8577C20.1744 15.8577 21.972 17.4792 22.2487 19.58C22.6212 19.4545 22.9637 19.2444 23.2469 18.9612C23.7291 18.4789 24 17.8248 24 17.1428V13.7143C24 13.0323 23.7291 12.3782 23.2469 11.896C22.7647 11.4138 22.1105 11.1429 21.4286 11.1429H18.6315L17.5843 7.7688L17.5785 7.74965C17.3997 7.2174 17.051 6.75845 16.5867 6.44271C16.1292 6.13159 15.5837 5.97646 15.0313 6H13.2857V3.42854C13.2857 2.71846 12.7101 2.14282 12 2.14282Z" fill="#4D4D4D"/>
</svg>
