<svg width="24" height="24" viewBox="0 0 24 24" fill="none" xmlns="http://www.w3.org/2000/svg">
<g clip-path="url(#clip0_383_1413)">
<path d="M18 18.6667C18.6627 18.6667 19.2 18.0697 19.2 17.3333C19.2 16.597 18.6627 16 18 16C17.3373 16 16.8 16.597 16.8 17.3333C16.8 18.0697 17.3373 18.6667 18 18.6667Z" fill="#4D4D4D"/>
<path fill-rule="evenodd" clip-rule="evenodd" d="M4.8 1.33333C4.8 0.596954 5.33726 0 6 0C6.66274 0 7.2 0.596954 7.2 1.33333V2.66667H16.8V1.33333C16.8 0.596954 17.3373 0 18 0C18.6627 0 19.2 0.596954 19.2 1.33333V2.66667H20.4C22.3882 2.66667 24 4.45753 24 6.66667V20C24 22.2091 22.3882 24 20.4 24H3.6C1.61177 24 0 22.2091 0 20V6.66667C0 4.45753 1.61178 2.66667 3.6 2.66667H4.8V1.33333ZM2.4 20V10.6667H21.6V20C21.6 20.7364 21.0627 21.3333 20.4 21.3333H3.6C2.93726 21.3333 2.4 20.7364 2.4 20Z" fill="#4D4D4D"/>
</g>
<defs>
<clipPath id="clip0_383_1413">
<rect width="24" height="24" fill="white"/>
</clipPath>
</defs>
</svg>
