<svg width="24" height="24" viewBox="0 0 24 24" fill="none" xmlns="http://www.w3.org/2000/svg">
<g clip-path="url(#clip0_383_1421)">
<path fill-rule="evenodd" clip-rule="evenodd" d="M2.46746 0.753154C2.94969 0.270917 3.60375 0 4.28573 0H21.4286C22.1105 0 22.7647 0.270917 23.2469 0.753154C23.7291 1.23539 24 1.88943 24 2.57143V19.7143C24 20.3962 23.7291 21.0504 23.2469 21.5326C22.7647 22.0149 22.1105 22.2857 21.4286 22.2857H7.81982L1.06505 23.9745C0.761547 24.0502 0.440815 23.9547 0.228255 23.7252C0.015696 23.4957 -0.0549256 23.1686 0.0440035 22.8718L1.7143 17.861V2.57143C1.7143 1.88945 1.98523 1.23539 2.46746 0.753154ZM12.2264 6.22136C12.5418 6.09074 12.8888 6.05655 13.2236 6.12315C13.5584 6.18975 13.866 6.35414 14.1074 6.59551C14.3487 6.8369 14.5131 7.14444 14.5797 7.47926C14.6463 7.81406 14.6121 8.1611 14.4815 8.47649C14.3509 8.79187 14.1296 9.06144 13.8458 9.25109C13.562 9.44074 13.2283 9.54197 12.8869 9.54197C12.2952 9.54197 11.8155 10.0217 11.8155 10.6134V12.4783C11.8155 13.0701 12.2952 13.5498 12.8869 13.5498C13.4786 13.5498 13.9583 13.0701 13.9583 12.4783V11.5335C14.3393 11.4237 14.7031 11.2555 15.0363 11.0328C15.6725 10.6077 16.1684 10.0035 16.4613 9.29652C16.7541 8.58958 16.8307 7.81169 16.6814 7.06119C16.5321 6.31071 16.1637 5.62135 15.6226 5.08029C15.0815 4.53922 14.3921 4.17075 13.6417 4.02147C12.8912 3.87218 12.1133 3.94881 11.4064 4.24162C10.6994 4.53446 10.0952 5.03033 9.67006 5.66655C9.24495 6.30279 9.01805 7.05079 9.01805 7.81598C9.01805 8.40771 9.49774 8.88741 10.0895 8.88741C10.6812 8.88741 11.1609 8.40771 11.1609 7.81598C11.1609 7.47461 11.2621 7.14091 11.4518 6.85707C11.6414 6.57322 11.911 6.35201 12.2264 6.22136ZM12.887 18.2121C12.0393 18.2102 11.3528 17.5226 11.3528 16.6745C11.3528 15.8252 12.0412 15.1368 12.8905 15.1368L12.8939 15.1368C13.7416 15.1387 14.4281 15.8264 14.4281 16.6745C14.4281 17.5238 13.7397 18.2121 12.8904 18.2121H12.887Z" fill="#4D4D4D"/>
</g>
<defs>
<clipPath id="clip0_383_1421">
<rect width="24" height="24" fill="white"/>
</clipPath>
</defs>
</svg>
