<svg width="24" height="24" viewBox="0 0 24 24" fill="none" xmlns="http://www.w3.org/2000/svg">
<path fill-rule="evenodd" clip-rule="evenodd" d="M13.7761 4.39748C13.0249 2.97851 10.9922 2.97852 10.2409 4.39748L2.90185 18.2602C2.19667 19.5922 3.16228 21.196 4.66943 21.196H19.3476C20.8548 21.196 21.8204 19.5922 21.1152 18.2602L13.7761 4.39748ZM12.0085 9.19598C11.4562 9.19598 11.0085 9.6437 11.0085 10.196V14.196C11.0085 14.7483 11.4562 15.196 12.0085 15.196C12.5608 15.196 13.0085 14.7483 13.0085 14.196V10.196C13.0085 9.6437 12.5608 9.19598 12.0085 9.19598ZM12.0085 18.196C12.5608 18.196 13.0085 17.7483 13.0085 17.196C13.0085 16.6437 12.5608 16.196 12.0085 16.196C11.4562 16.196 11.0085 16.6437 11.0085 17.196C11.0085 17.7483 11.4562 18.196 12.0085 18.196Z" fill="#AC2734"/>
</svg>
