<svg width="24" height="24" viewBox="0 0 24 24" fill="none" xmlns="http://www.w3.org/2000/svg">
<g clip-path="url(#clip0_383_1420)">
<path fill-rule="evenodd" clip-rule="evenodd" d="M23.6397 9.44386C23.6397 14.3635 19.6516 18.3516 14.732 18.3516C9.81236 18.3516 5.82423 14.3635 5.82423 9.44386C5.82423 4.52426 9.81236 0.536133 14.732 0.536133C19.6516 0.536133 23.6397 4.52426 23.6397 9.44386ZM14.7318 2.71707C15.4419 2.71707 16.0176 3.29271 16.0176 4.00279V4.54617C16.6296 4.69178 17.17 5.02281 17.5744 5.47455C17.8346 5.76535 18.0403 6.10783 18.174 6.48586C18.4106 7.15534 18.0597 7.88991 17.3902 8.12654C16.7207 8.36318 15.9861 8.01226 15.7495 7.34278C15.7297 7.28685 15.6988 7.23471 15.6583 7.18947C15.572 7.09306 15.4507 7.03541 15.3142 7.03541H14.7404L14.7318 7.03545L14.7233 7.03541H13.962C13.8109 7.03541 13.6883 7.15793 13.6883 7.30906C13.6883 7.43767 13.7779 7.54893 13.9035 7.57641L15.9623 8.02675C17.3549 8.33139 18.3468 9.56515 18.3468 10.9899C18.3468 12.4222 17.3536 13.6237 16.0176 13.9411V14.4845C16.0176 15.1945 15.4419 15.7702 14.7318 15.7702C14.0218 15.7702 13.4461 15.1945 13.4461 14.4845V13.9412C12.4399 13.7022 11.6294 12.962 11.2898 12.0013C11.0532 11.3318 11.4041 10.5972 12.0736 10.3606C12.7431 10.124 13.4776 10.4749 13.7143 11.1443C13.7782 11.3252 13.9508 11.4517 14.1496 11.4517H15.3142C15.5683 11.4517 15.7754 11.2452 15.7754 10.9899C15.7754 10.7727 15.624 10.585 15.4127 10.5388L13.354 10.0884C12.0479 9.80271 11.1169 8.64609 11.1169 7.30906C11.1169 5.91393 12.1211 4.75332 13.4461 4.51063V4.00279C13.4461 3.29271 14.0218 2.71707 14.7318 2.71707ZM14.732 20.4945C15.2917 20.4945 15.8417 20.453 16.3791 20.3726C14.745 22.3197 12.2934 23.5574 9.55269 23.5574C4.63309 23.5574 0.644958 19.5693 0.644958 14.6497C0.644958 11.9252 1.86805 9.48646 3.79511 7.85251C3.72016 8.37216 3.68137 8.9035 3.68137 9.44391C3.68137 15.547 8.62888 20.4945 14.732 20.4945Z" fill="#4D4D4D"/>
</g>
<defs>
<clipPath id="clip0_383_1420">
<rect width="24" height="24" fill="white"/>
</clipPath>
</defs>
</svg>
