<svg width="24" height="24" viewBox="0 0 24 24" fill="none" xmlns="http://www.w3.org/2000/svg">
<g clip-path="url(#clip0_383_1417)">
<path fill-rule="evenodd" clip-rule="evenodd" d="M0 7.58389C0 3.39542 3.40243 0 7.59954 0C11.7967 0 15.1991 3.39542 15.1991 7.58389C15.1991 8.37565 15.0775 9.13906 14.852 9.85657C13.7592 9.88902 12.718 10.3364 11.9426 11.1101C11.1371 11.914 10.6846 13.0043 10.6846 14.1411V14.5169C9.7418 14.9353 8.69788 15.1678 7.59954 15.1678C3.40243 15.1678 0 11.7724 0 7.58389ZM7.59956 2.03063C8.1926 2.03063 8.67338 2.5104 8.67338 3.10224V3.58908C9.20104 3.70957 9.66699 3.99203 10.0145 4.37944C10.2351 4.62546 10.4095 4.91519 10.5228 5.23498C10.7204 5.79299 10.4273 6.40523 9.86816 6.60244C9.309 6.79967 8.69551 6.50722 8.49788 5.9492C8.4797 5.89789 8.45126 5.85015 8.41417 5.8088C8.33515 5.72069 8.22373 5.66776 8.0985 5.66776H7.60358L7.59956 5.66777L7.59554 5.66776H6.93976C6.79482 5.66776 6.67732 5.78502 6.67732 5.92966C6.67732 6.05275 6.76321 6.15922 6.88369 6.18552L8.64789 6.57064C9.82848 6.82836 10.6693 7.87209 10.6693 9.07734C10.6693 10.2966 9.81674 11.3183 8.67338 11.579V12.0657C8.67338 12.6575 8.1926 13.1373 7.59956 13.1373C7.0065 13.1373 6.52573 12.6575 6.52573 12.0657V11.5791C5.66277 11.3824 4.9665 10.7525 4.67624 9.93298C4.47861 9.37497 4.77169 8.76273 5.33083 8.5655C5.88999 8.36827 6.5035 8.66075 6.70114 9.21876C6.75974 9.38422 6.91793 9.50019 7.10049 9.50019H7.59129L7.59956 9.50017L7.60782 9.50019H8.0985C8.3317 9.50019 8.52167 9.31109 8.52167 9.07734C8.52167 8.87852 8.38283 8.70668 8.18892 8.66437L6.42474 8.27923C5.31831 8.0377 4.52967 7.05993 4.52967 5.92966C4.52967 4.74224 5.39196 3.75579 6.52573 3.55988V3.10224C6.52573 2.5104 7.0065 2.03063 7.59956 2.03063ZM12.8322 14.1411V24H24V22.2854C24 21.3758 23.638 20.5036 22.9935 19.8607C22.3491 19.2175 21.475 18.8563 20.5638 18.8563H17.1275V14.1411C17.1275 13.5727 16.9012 13.0276 16.4985 12.6256C16.0957 12.2237 15.5495 11.9979 14.9799 11.9979C14.4103 11.9979 13.864 12.2237 13.4613 12.6256C13.0585 13.0276 12.8322 13.5727 12.8322 14.1411Z" fill="#4D4D4D"/>
</g>
<defs>
<clipPath id="clip0_383_1417">
<rect width="24" height="24" fill="white"/>
</clipPath>
</defs>
</svg>
