<svg width="24" height="24" viewBox="0 0 24 24" fill="none" xmlns="http://www.w3.org/2000/svg">
<path d="M12.0028 0C11.2144 0 10.4089 0.0505264 9.60334 0.176842C4.87301 0.846316 1.10245 3.66316 0.211229 7.14947C-0.611438 10.4463 1.0339 13.4779 4.01606 15.4358C4.75303 15.9158 5.14723 16.5853 5.14723 17.2926V20.2105C5.14723 21.6 6.68973 22.7368 8.575 22.7368H9.05489C9.65475 23.4947 10.7345 24 12.0028 24C13.2711 24 14.3679 23.4947 14.9507 22.7368H15.4306C17.3158 22.7368 18.8583 21.6 18.8583 20.2105V17.2926C18.8583 16.5979 19.2354 15.9158 19.9552 15.4484C22.4404 13.8316 24 11.4695 24 8.8421C24 3.95368 18.6355 0 12.0028 0ZM12.8597 13.8947H11.1458V10.6232L8.00942 8.32421L9.22628 7.42737L12.0028 9.47368L14.7793 7.42737L15.9961 8.32421L12.8597 10.6358V13.8947ZM14.5736 20.2105C14.5565 20.2105 14.5393 20.1979 14.5222 20.1979V20.2105H9.48337V20.1979C9.46623 20.1979 9.44909 20.2105 9.43195 20.2105C8.95206 20.2105 8.575 19.9326 8.575 19.5789C8.575 19.2253 8.95206 18.9474 9.43195 18.9474C9.44909 18.9474 9.46623 18.96 9.48337 18.96V18.9474H14.5222V18.96C14.5393 18.96 14.5565 18.9474 14.5736 18.9474C15.0535 18.9474 15.4306 19.2253 15.4306 19.5789C15.4306 19.9326 15.0535 20.2105 14.5736 20.2105ZM14.5736 17.6842H9.43195C8.95206 17.6842 8.575 17.4063 8.575 17.0526C8.575 16.6989 8.95206 16.4211 9.43195 16.4211H14.5736C15.0535 16.4211 15.4306 16.6989 15.4306 17.0526C15.4306 17.4063 15.0535 17.6842 14.5736 17.6842Z" fill="black" fill-opacity="0.7"/>
</svg>
