<svg width="24" height="24" viewBox="0 0 24 24" fill="none" xmlns="http://www.w3.org/2000/svg">
<path d="M2.4 0C1.07452 0 0 1.07452 0 2.4V21.6C0 22.9255 1.07452 24 2.4 24H10.8C12.1255 24 13.2 22.9255 13.2 21.6V15.6H7.2C5.87452 15.6 4.8 14.5255 4.8 13.2V10.8C4.8 9.47452 5.87452 8.4 7.2 8.4H13.2V2.4C13.2 1.07452 12.1255 0 10.8 0H2.4Z" fill="#4D4D4D"/>
<path d="M7.2 10.8V13.2L19.9029 13.2L17.1515 15.9515C16.6828 16.4201 16.6828 17.1799 17.1515 17.6485C17.6201 18.1172 18.3799 18.1172 18.8485 17.6485L23.4788 13.0182C23.5088 12.9883 23.5372 12.9573 23.5639 12.9255C23.8303 12.7054 24 12.3725 24 12C24 11.6275 23.8303 11.2946 23.5639 11.0745C23.5372 11.0427 23.5088 11.0117 23.4788 10.9818L18.8485 6.35147C18.3799 5.88284 17.6201 5.88284 17.1515 6.35147C16.6828 6.8201 16.6828 7.5799 17.1515 8.04853L19.9029 10.8L7.2 10.8Z" fill="#4D4D4D"/>
</svg>
