<svg width="24" height="24" viewBox="0 0 24 24" fill="none" xmlns="http://www.w3.org/2000/svg">
<g clip-path="url(#clip0_383_1414)">
<path fill-rule="evenodd" clip-rule="evenodd" d="M0 2.18182C0 0.976834 1.07452 0 2.4 0H12.2059C12.8424 0 13.4529 0.229869 13.9029 0.63904L18.4971 4.81551C18.9471 5.22468 19.2 5.77963 19.2 6.35828V9.10883C19.2 9.25941 19.036 9.36491 18.8767 9.32382C18.4073 9.2028 17.912 9.13802 17.4 9.13802C14.789 9.13802 12.3857 10.8911 12.3857 13.6023C12.3857 14.5232 12.9307 15.4951 13.4461 16.244C13.4956 16.3158 13.4686 16.4108 13.3869 16.4517C12.2285 17.0322 11.1247 17.7362 10.4433 18.6251C9.57269 19.7606 9.15156 20.7626 8.95514 21.6384C8.93187 21.7421 8.83263 21.8182 8.71616 21.8182H2.4C1.07452 21.8182 0 20.8414 0 19.6364V2.18182ZM8.51433 2.6932C8.8067 2.43949 9.26996 2.44928 9.54904 2.71508C9.82804 2.98079 9.81736 3.40177 9.52524 3.6555L5.8127 6.89901C5.67006 7.02279 5.47794 7.08951 5.28087 7.08316C5.08422 7.07683 4.89867 6.99877 4.76609 6.86662L2.95126 5.08534C2.67938 4.81345 2.70143 4.39267 3.0005 4.1455C3.29921 3.89863 3.76129 3.91832 4.03331 4.18924L5.34124 5.46745L8.51433 2.6932ZM8.51433 8.14775C8.8067 7.89404 9.26996 7.90383 9.54904 8.16962C9.82804 8.43534 9.81736 8.85631 9.52524 9.11005L5.8127 12.3536C5.67006 12.4773 5.47794 12.5441 5.28087 12.5377C5.08422 12.5314 4.89867 12.4533 4.76609 12.3212L2.95126 10.5399C2.67938 10.268 2.70143 9.84721 3.0005 9.60004C3.29921 9.35318 3.76129 9.37286 4.03331 9.64379L5.34124 10.922L8.51433 8.14775ZM8.51433 13.6023C8.8067 13.3486 9.26996 13.3584 9.54904 13.6242C9.82804 13.8899 9.81736 14.3109 9.52524 14.5646L5.8127 17.8081C5.67006 17.9319 5.47794 17.9986 5.28087 17.9923C5.08422 17.9859 4.89867 17.9079 4.76609 17.7757L2.95126 15.9944C2.67938 15.7225 2.70143 15.3018 3.0005 15.0546C3.29921 14.8077 3.76129 14.8274 4.03331 15.0983L5.34124 16.3765L8.51433 13.6023Z" fill="#4D4D4D"/>
<path fill-rule="evenodd" clip-rule="evenodd" d="M11.933 19.7254C12.9415 18.4605 14.4486 17.5091 17.4267 17.5091C20.4048 17.5091 21.8585 18.4605 22.867 19.7254C23.8417 20.9479 23.9969 21.9361 24 22.7114C24.0031 23.4911 23.2766 24 22.5318 24H12.2682C11.5234 24 10.7969 23.4911 10.8 22.7114C10.8031 21.9361 10.9583 20.9479 11.933 19.7254Z" fill="#4D4D4D"/>
<path fill-rule="evenodd" clip-rule="evenodd" d="M17.4268 16.4322C19.1218 16.4322 20.496 15.1958 20.496 13.6706C20.496 12.1455 19.1218 10.9091 17.4268 10.9091C15.7317 10.9091 14.3576 12.1455 14.3576 13.6706C14.3576 15.1958 15.7317 16.4322 17.4268 16.4322Z" fill="#4D4D4D"/>
</g>
<defs>
<clipPath id="clip0_383_1414">
<rect width="24" height="24" fill="white"/>
</clipPath>
</defs>
</svg>
