<svg width="24" height="24" viewBox="0 0 24 24" fill="none" xmlns="http://www.w3.org/2000/svg">
<g clip-path="url(#clip0_383_1419)">
<path d="M12.0003 4.97722C13.3747 4.97722 14.4889 3.86303 14.4889 2.48861C14.4889 1.11419 13.3747 0 12.0003 0C10.6259 0 9.51172 1.11419 9.51172 2.48861C9.51172 3.86303 10.6259 4.97722 12.0003 4.97722Z" fill="#4D4D4D"/>
<path d="M7.8418 7.19345C8.56847 6.28323 9.85543 5.59863 12.0014 5.59863C14.1473 5.59863 15.4343 6.28323 16.161 7.19345C16.8633 8.07316 16.9751 9.08146 16.9774 9.63939C16.9796 10.2004 16.4561 10.5666 15.9195 10.5666H8.08329C7.54661 10.5666 7.02315 10.2004 7.0254 9.63939C7.02763 9.08145 7.13949 8.07316 7.8418 7.19345Z" fill="#4D4D4D"/>
<path d="M4.97494 17.5529C6.34936 17.5529 7.46354 16.4387 7.46354 15.0643C7.46354 13.6899 6.34936 12.5757 4.97494 12.5757C3.60052 12.5757 2.48633 13.6899 2.48633 15.0643C2.48633 16.4387 3.60052 17.5529 4.97494 17.5529Z" fill="#4D4D4D"/>
<path d="M0.816414 19.7691C1.54308 18.8589 2.83004 18.1743 4.97599 18.1743C7.12193 18.1743 8.40889 18.8589 9.13556 19.7691C9.83788 20.6488 9.94974 21.6571 9.95197 22.2151C9.95422 22.7761 9.43075 23.1423 8.89407 23.1423H1.0579C0.521223 23.1423 -0.00223867 22.7761 7.20093e-06 22.2151C0.00224068 21.6571 0.114101 20.6488 0.816414 19.7691Z" fill="#4D4D4D"/>
<path d="M21.5124 15.0643C21.5124 16.4387 20.3982 17.5529 19.0238 17.5529C17.6493 17.5529 16.5352 16.4387 16.5352 15.0643C16.5352 13.6899 17.6493 12.5757 19.0238 12.5757C20.3982 12.5757 21.5124 13.6899 21.5124 15.0643Z" fill="#4D4D4D"/>
<path d="M19.0248 18.1743C16.8789 18.1743 15.5919 18.8589 14.8652 19.7691C14.1629 20.6488 14.0511 21.6571 14.0488 22.2151C14.0466 22.7761 14.5701 23.1423 15.1067 23.1423H22.9429C23.4796 23.1423 24.003 22.7761 24.0008 22.2151C23.9986 21.6571 23.8867 20.6488 23.1844 19.7691C22.4577 18.8589 21.1708 18.1743 19.0248 18.1743Z" fill="#4D4D4D"/>
<path d="M12.6996 12.0317C12.6996 11.6451 12.3862 11.3317 11.9996 11.3317C11.613 11.3317 11.2996 11.6451 11.2996 12.0317V14.2884H9.27344C8.88684 14.2884 8.57344 14.6018 8.57344 14.9884C8.57344 15.375 8.88684 15.6884 9.27344 15.6884H14.7336C15.1202 15.6884 15.4336 15.375 15.4336 14.9884C15.4336 14.6018 15.1202 14.2884 14.7336 14.2884H12.6996V12.0317Z" fill="#4D4D4D"/>
</g>
<defs>
<clipPath id="clip0_383_1419">
<rect width="24" height="24" fill="white"/>
</clipPath>
</defs>
</svg>
