<svg width="36" height="36" viewBox="0 0 36 36" fill="none" xmlns="http://www.w3.org/2000/svg">
<path fill-rule="evenodd" clip-rule="evenodd" d="M12.6086 5.72727C12.6086 4.22104 13.8156 3 15.3044 3H20.696C22.1848 3 23.3918 4.22104 23.3918 5.72727V7.00298C23.8507 7.23372 24.2932 7.493 24.7168 7.77853L25.8103 7.13985C27.0997 6.38673 28.7484 6.83366 29.4928 8.1381L32.1886 12.8619C32.933 14.1663 32.4912 15.8343 31.2019 16.5874L30.1075 17.2266C30.1232 17.4824 30.1312 17.7402 30.1312 18C30.1312 18.2598 30.1232 18.5177 30.1075 18.7735L31.2016 19.4126C32.491 20.1657 32.9328 21.8337 32.1883 23.1381L29.4926 27.8619C28.7481 29.1663 27.0994 29.6133 25.8101 28.8602L24.7167 28.2215C24.2931 28.507 23.8507 28.7663 23.3918 28.997V30.2727C23.3918 31.779 22.1848 33 20.696 33H15.3044C13.8156 33 12.6086 31.779 12.6086 30.2727V28.997C12.1497 28.7663 11.7073 28.507 11.2836 28.2215L10.1903 28.8601C8.90096 29.6132 7.25225 29.1663 6.50783 27.8619L3.81205 23.1381C3.06763 21.8337 3.5094 20.1657 4.79877 19.4126L5.89289 18.7735C5.87717 18.5177 5.86919 18.2598 5.86919 18C5.86919 17.7402 5.87716 17.4824 5.89288 17.2266L4.79853 16.5874C3.50916 15.8343 3.06739 14.1663 3.81181 12.8619L6.50759 8.13813C7.25201 6.83369 8.90072 6.38676 10.1901 7.13987L11.2835 7.77854C11.7072 7.49301 12.1497 7.23373 12.6086 7.00298V5.72727ZM18.0006 24.8182C21.7227 24.8182 24.74 21.7656 24.74 18C24.74 14.2344 21.7227 11.1818 18.0006 11.1818C14.2785 11.1818 11.2611 14.2344 11.2611 18C11.2611 21.7656 14.2785 24.8182 18.0006 24.8182Z" fill="#4D4D4D"/>
<path d="M22.0442 18C22.0442 20.2593 20.2338 22.0909 18.0006 22.0909C15.7673 22.0909 13.9569 20.2593 13.9569 18C13.9569 15.7407 15.7673 13.9091 18.0006 13.9091C20.2338 13.9091 22.0442 15.7407 22.0442 18Z" fill="#4D4D4D"/>
</svg>
