<svg width="24" height="24" viewBox="0 0 24 24" fill="none" xmlns="http://www.w3.org/2000/svg">
<path d="M12 11.2C13.9882 11.2 15.6 9.58822 15.6 7.6C15.6 5.61177 13.9882 4 12 4C10.0118 4 8.4 5.61177 8.4 7.6C8.4 9.58822 10.0118 11.2 12 11.2Z" fill="#4D4D4D"/>
<path d="M7.82362 8.96088C7.82362 10.4579 6.61005 11.6715 5.11303 11.6715C3.61602 11.6715 2.40245 10.4579 2.40245 8.96088C2.40245 7.46386 3.61602 6.25029 5.11303 6.25029C6.61005 6.25029 7.82362 7.46386 7.82362 8.96088Z" fill="#4D4D4D"/>
<path d="M11.9998 12.2715C9.32978 12.2715 7.72853 13.2653 6.8244 14.5867C5.95058 15.8638 5.81138 18.5268 5.8086 19.3368C5.80581 20.1513 6.45711 20.6829 7.12485 20.6829H16.8747C17.5424 20.6829 18.1937 20.1513 18.1909 19.3368C18.1882 18.5268 18.049 15.8638 17.1752 14.5867C16.271 13.2653 14.6698 12.2715 11.9998 12.2715Z" fill="#4D4D4D"/>
<path d="M6.51495 13.0559C6.20315 13.352 5.93333 13.6734 5.70125 14.0126C4.63766 15.5671 4.46824 18.548 4.46486 19.5339C4.46418 19.732 4.49529 19.9164 4.55202 20.0846H1.08704C0.535579 20.0846 -0.00230033 19.6455 7.39928e-06 18.9729C0.0023024 18.304 0.117259 15.8958 0.838916 14.8411C1.5856 13.7498 2.90801 12.929 5.11306 12.929C5.62701 12.929 6.09302 12.9736 6.51495 13.0559Z" fill="#4D4D4D"/>
<path d="M19.4491 20.0846C19.5058 19.9164 19.5369 19.732 19.5363 19.5339C19.5329 18.548 19.3635 15.5671 18.2999 14.0126C18.0678 13.6733 17.7978 13.3518 17.4859 13.0556C17.9075 12.9735 18.3731 12.929 18.8865 12.929C21.0915 12.929 22.414 13.7498 23.1606 14.8411C23.8823 15.8958 23.9972 18.304 23.9995 18.9729C24.0018 19.6455 23.4639 20.0846 22.9125 20.0846H19.4491Z" fill="#4D4D4D"/>
<path d="M21.5971 8.96088C21.5971 10.4579 20.3835 11.6715 18.8865 11.6715C17.3895 11.6715 16.1759 10.4579 16.1759 8.96088C16.1759 7.46386 17.3895 6.25029 18.8865 6.25029C20.3835 6.25029 21.5971 7.46386 21.5971 8.96088Z" fill="#4D4D4D"/>
</svg>
