<svg width="24" height="24" viewBox="0 0 24 24" fill="none" xmlns="http://www.w3.org/2000/svg">
<path fill-rule="evenodd" clip-rule="evenodd" d="M12 4C9.23858 4 7 6.23858 7 9C7 11.7879 8.61169 15.8673 12 19.5553C15.3883 15.8673 17 11.7879 17 9C17 6.23858 14.7614 4 12 4ZM5 9C5 5.13401 8.13401 2 12 2C15.866 2 19 5.13401 19 9C19 12.6522 16.8356 17.5787 12.7071 21.7071C12.3166 22.0976 11.6834 22.0976 11.2929 21.7071C7.16444 17.5787 5 12.6522 5 9Z" fill="#F9BD3B"/>
<path fill-rule="evenodd" clip-rule="evenodd" d="M12 10C12.5523 10 13 9.55228 13 9C13 8.44772 12.5523 8 12 8C11.4477 8 11 8.44772 11 9C11 9.55228 11.4477 10 12 10ZM12 12C13.6569 12 15 10.6569 15 9C15 7.34315 13.6569 6 12 6C10.3431 6 9 7.34315 9 9C9 10.6569 10.3431 12 12 12Z" fill="#F9BD3B"/>
</svg>
